<svg width="18" height="18" viewBox="0 0 18 18" fill="none" xmlns="http://www.w3.org/2000/svg">
<path d="M8.32539 2.02398V8.48721C8.32614 9.02429 8.11305 9.53949 7.73338 9.91918C7.35369 10.2989 6.83849 10.512 6.30141 10.5112H2.02398C1.48709 10.5119 0.971895 10.2989 0.592014 9.91918C0.21233 9.53949 -0.000577104 9.02429 1.17493e-06 8.48721V2.02398C-0.000563563 1.48709 0.212335 0.971896 0.592014 0.592015C0.971885 0.212331 1.48709 -0.000577104 2.02398 1.17492e-06H6.30141C6.83849 -0.000563563 7.35369 0.212336 7.73338 0.592015C8.11306 0.971886 8.32616 1.48709 8.32539 2.02398ZM6.30141 11.8605H2.02398C1.48709 11.8598 0.971895 12.0728 0.592014 12.4525C0.21233 12.8322 -0.000577104 13.3474 1.17493e-06 13.8845V15.976C-0.000563563 16.5129 0.212335 17.0281 0.592014 17.408C0.971885 17.7877 1.48709 18.0006 2.02398 18H6.30141C6.83849 18.0006 7.35369 17.7877 7.73338 17.408C8.11306 17.0281 8.32616 16.5129 8.32539 15.976V13.8845C8.32614 13.3474 8.11305 12.8322 7.73338 12.4525C7.35369 12.0728 6.83849 11.8597 6.30141 11.8605ZM15.976 1.17492e-06H11.6986C11.1615 -0.000563563 10.6463 0.212336 10.2666 0.592015C9.88694 0.971886 9.67384 1.48709 9.67461 2.02398V15.9759C9.67386 16.5128 9.88694 17.028 10.2666 17.4079C10.6463 17.7876 11.1615 18.0005 11.6986 17.9999H15.976C16.5129 18.0005 17.0281 17.7876 17.408 17.4079C17.7877 17.028 18.0006 16.5128 18 15.9759V2.02398C18.0006 1.48709 17.7877 0.971896 17.408 0.592015C17.0281 0.212331 16.5129 -0.000577104 15.976 1.17492e-06Z" fill="black"/>
</svg>
