<svg width="31" height="32" viewBox="0 0 31 32" fill="none" xmlns="http://www.w3.org/2000/svg">
<path d="M10.5064 25.7594H9.80756C4.2171 25.7594 1.42188 24.3618 1.42188 17.3738V10.3857C1.42188 4.79523 4.2171 2 9.80756 2H20.9885C26.5789 2 29.3742 4.79523 29.3742 10.3857V17.3738C29.3742 22.9642 26.5789 25.7594 20.9885 25.7594H20.2897C19.8564 25.7594 19.4371 25.9691 19.1716 26.3185L17.0752 29.1137C16.1527 30.3436 14.6433 30.3436 13.7209 29.1137L11.6245 26.3185C11.4008 26.011 10.8837 25.7594 10.5064 25.7594Z" stroke="black" stroke-width="2.09642" stroke-miterlimit="10" stroke-linecap="round" stroke-linejoin="round"/>
<path d="M20.9831 14.5786H20.9971M15.3912 14.5786H15.4052M9.80078 14.5786H9.81196" stroke="black" stroke-width="2.79523" stroke-linecap="round" stroke-linejoin="round"/>
</svg>
