<svg width="21" height="20" viewBox="0 0 21 20" fill="none" xmlns="http://www.w3.org/2000/svg">
<path d="M9.31459 0.0692139C8.97609 0.0692139 8.70089 0.399932 8.70089 0.806668V8.17743H6.86038L10.5408 12.6L14.2212 8.17743H12.3807V0.806668C12.3807 0.399913 12.1061 0.0692139 11.7676 0.0692139H9.31459ZM0.726979 13.3367C0.388484 13.3367 0.113281 13.6674 0.113281 14.0741V18.4967C0.113281 18.9035 0.387886 19.2342 0.726979 19.2342H20.3556C20.6941 19.2342 20.9693 18.9035 20.9693 18.4967V14.0741C20.9693 13.6674 20.6941 13.3367 20.3556 13.3367H13.8722C13.7043 13.3367 13.5426 13.4201 13.4277 13.5664L11.7689 15.5474H9.39377L7.69563 13.5474C7.58075 13.4127 7.42733 13.3367 7.26621 13.3367L0.726979 13.3367Z" fill="#4FB783"/>
</svg>
