<svg width="33" height="22" viewBox="0 0 33 22" fill="none" xmlns="http://www.w3.org/2000/svg">
<path d="M12.1205 19.3839L10.3817 19.8501C9.98203 19.957 9.55629 19.9009 9.19797 19.6941C8.83966 19.4873 8.57808 19.1467 8.47069 18.7472C8.44795 18.6624 8.39246 18.5901 8.31642 18.5462C8.24038 18.5023 8.15002 18.4904 8.06522 18.5132L6.92824 18.818C6.52858 18.9249 6.10283 18.8688 5.74452 18.662C5.38621 18.4552 5.12463 18.1146 5.01724 17.7151C4.99455 17.6305 4.93922 17.5583 4.8634 17.5144C4.78757 17.4704 4.69743 17.4584 4.61273 17.4808L4.0679 17.6269C3.66825 17.7335 3.24263 17.6773 2.88439 17.4705C2.52615 17.2637 2.26453 16.9234 2.15691 16.524L1.42238 13.7844C1.31578 13.3848 1.37202 12.9591 1.57877 12.6009C1.78553 12.2427 2.12592 11.981 2.5253 11.8734L3.07302 11.7265C3.15782 11.7038 3.23012 11.6483 3.27401 11.5723C3.3179 11.4962 3.32978 11.4059 3.30704 11.3211C3.20046 10.9215 3.25676 10.496 3.46359 10.1379C3.67041 9.7798 4.01086 9.51838 4.41021 9.41104L5.55106 9.10516C5.59305 9.0939 5.63241 9.07448 5.6669 9.04801C5.70138 9.02154 5.73032 8.98855 5.75205 8.95089C5.77378 8.91324 5.78788 8.87167 5.79355 8.82857C5.79922 8.78547 5.79634 8.74168 5.78508 8.69969C5.6782 8.30003 5.73432 7.87428 5.94112 7.51597C6.14791 7.15766 6.48848 6.89608 6.888 6.78869L8.6268 6.32249C9.02646 6.21561 9.4522 6.27172 9.81051 6.47852C10.1688 6.68532 10.4304 7.02588 10.5378 7.42541L13.2314 17.4718C13.3383 17.8715 13.2822 18.2972 13.0754 18.6555C12.8686 19.0138 12.528 19.2754 12.1285 19.3828L12.1205 19.3839ZM2.84413 13.0625C2.75947 13.0855 2.68735 13.1411 2.6435 13.217C2.59966 13.293 2.58765 13.3832 2.61011 13.468L3.34463 16.2076C3.3676 16.2923 3.42314 16.3644 3.49911 16.4082C3.57508 16.4521 3.66532 16.4641 3.75011 16.4416L4.29783 16.2948C4.69739 16.1882 5.12292 16.2445 5.48102 16.4513C5.83911 16.6581 6.10052 16.9986 6.20786 17.3979C6.2306 17.4827 6.28609 17.555 6.36213 17.5989C6.43818 17.6428 6.52854 17.6547 6.61334 17.632L7.75419 17.3261C8.15384 17.2195 8.57945 17.2757 8.93769 17.4825C9.29593 17.6892 9.55756 18.0296 9.66518 18.429C9.68816 18.5137 9.7437 18.5858 9.81967 18.6296C9.89564 18.6735 9.98587 18.6855 10.0707 18.663L11.8095 18.1968C11.8943 18.1741 11.9666 18.1186 12.0105 18.0425C12.0543 17.9665 12.0662 17.8761 12.0435 17.7913L9.35092 7.74881C9.32818 7.66401 9.27269 7.59171 9.19665 7.54782C9.12061 7.50394 9.03024 7.49205 8.94544 7.51479L7.20664 7.98099C7.12198 8.00396 7.04986 8.0595 7.00601 8.13547C6.96217 8.21144 6.95016 8.30168 6.97262 8.38647C7.07946 8.78596 7.02343 9.21152 6.81684 9.56974C6.61024 9.92797 6.26996 10.1896 5.87067 10.2972L4.72596 10.6041C4.64116 10.6269 4.56886 10.6823 4.52497 10.7584C4.48109 10.8344 4.4692 10.9248 4.49194 11.0096C4.59878 11.4091 4.54276 11.8347 4.33616 12.1929C4.12956 12.5511 3.78928 12.8127 3.38999 12.9203L2.84413 13.0625Z" fill="#FF3162"/>
<path d="M25.1797 15.884L23.4409 16.3502C23.0413 16.4568 22.6157 16.4006 22.2574 16.1938C21.8992 15.987 21.6376 15.6466 21.5299 15.2473L18.8376 5.2057C18.731 4.80605 18.7873 4.38043 18.994 4.02219C19.2008 3.66395 19.5412 3.40232 19.9406 3.29469L21.6793 2.82849C22.079 2.72161 22.5047 2.77775 22.863 2.98454C23.2214 3.19134 23.4829 3.5319 23.5903 3.93143C23.6133 4.01608 23.6688 4.0882 23.7448 4.13205C23.8208 4.17589 23.911 4.1879 23.9958 4.16544L25.1367 3.85956C25.5362 3.75298 25.9618 3.80928 26.3199 4.01611C26.678 4.22293 26.9394 4.56338 27.0467 4.96273C27.0697 5.04739 27.1252 5.11952 27.2012 5.16337C27.2771 5.20721 27.3674 5.21922 27.4522 5.19676L27.9999 5.04991C28.3995 4.94303 28.8253 4.99914 29.1836 5.20593C29.5419 5.41273 29.8035 5.7533 29.9109 6.15283L30.6454 8.8924C30.7522 9.2919 30.6962 9.71745 30.4896 10.0757C30.283 10.4339 29.9428 10.6955 29.5435 10.8031L28.9919 10.951C28.9072 10.974 28.8351 11.0295 28.7913 11.1055C28.7474 11.1815 28.7354 11.2717 28.7579 11.3565C28.8644 11.7559 28.8082 12.1812 28.6016 12.5393C28.395 12.8973 28.0548 13.1587 27.6556 13.2663L26.5148 13.5722C26.4301 13.5951 26.358 13.6507 26.3142 13.7266C26.2703 13.8026 26.2583 13.8928 26.2808 13.9776C26.3863 14.3764 26.3298 14.8007 26.1235 15.1579C25.9172 15.5151 25.5779 15.7761 25.1797 15.884ZM20.2583 4.47998C20.1737 4.50295 20.1016 4.55849 20.0577 4.63446C20.0139 4.71043 20.0018 4.80068 20.0243 4.88547L22.7179 14.9319C22.7409 15.0165 22.7964 15.0886 22.8724 15.1325C22.9484 15.1763 23.0386 15.1883 23.1234 15.1659L24.8622 14.6997C24.947 14.6769 25.0193 14.6214 25.0632 14.5454C25.1071 14.4694 25.1189 14.379 25.0962 14.2942C24.9896 13.8946 25.0459 13.4689 25.2526 13.1107C25.4594 12.7524 25.7997 12.4908 26.1991 12.3832L27.34 12.0773C27.4248 12.0546 27.4971 11.9991 27.541 11.923C27.5849 11.847 27.5967 11.7566 27.574 11.6718C27.4674 11.2722 27.5236 10.8466 27.7304 10.4883C27.9372 10.1301 28.2775 9.86847 28.6769 9.76084L29.2246 9.61399C29.2666 9.60273 29.306 9.58331 29.3405 9.55684C29.375 9.53037 29.4039 9.49737 29.4256 9.45972C29.4474 9.42207 29.4615 9.3805 29.4671 9.3374C29.4728 9.2943 29.4699 9.25051 29.4586 9.20852L28.7241 6.46895C28.7129 6.42696 28.6935 6.38758 28.667 6.3531C28.6405 6.31861 28.6075 6.28969 28.5699 6.26795C28.5322 6.24622 28.4907 6.23213 28.4476 6.22646C28.4044 6.22079 28.3606 6.22366 28.3187 6.23492L27.7671 6.38281C27.3674 6.48969 26.9417 6.43358 26.5833 6.22678C26.225 6.01998 25.9635 5.67941 25.8561 5.27989C25.8331 5.19532 25.7776 5.12332 25.7016 5.07963C25.6257 5.03595 25.5355 5.02415 25.4508 5.04684L24.31 5.35272C23.9103 5.45932 23.4848 5.40308 23.1265 5.19633C22.7683 4.98957 22.5066 4.64918 22.399 4.2498C22.3877 4.20781 22.3683 4.16845 22.3419 4.13397C22.3154 4.09948 22.2824 4.07055 22.2447 4.04882C22.2071 4.02709 22.1655 4.01298 22.1224 4.00732C22.0793 4.00165 22.0355 4.00453 21.9935 4.01579L20.2583 4.47998Z" fill="#FF3162"/>
<path d="M21.8786 12.3157L11.3251 15.1453L10.0508 10.3926L20.6043 7.563L21.8786 12.3157ZM12.1901 13.6408L20.3702 11.4476L19.7325 9.06931L11.5524 11.2625L12.1901 13.6408Z" fill="#FF3162"/>
<path d="M5.78125 8.70361L6.96845 8.38531L9.58953 18.1612L8.40233 18.4795L5.78125 8.70361Z" fill="#FF3162"/>
<path d="M3.30469 11.3247L4.49176 11.0064L6.26648 17.6257L5.07941 17.9439L3.30469 11.3247Z" fill="#FF3162"/>
<path d="M22.3984 4.24805L23.5857 3.92973L26.2067 13.7056L25.0195 14.024L22.3984 4.24805Z" fill="#FF3162"/>
<path d="M25.8555 5.27808L27.0425 4.9598L28.8173 11.579L27.6302 11.8973L25.8555 5.27808Z" fill="#FF3162"/>
</svg>
