<svg width="39" height="36" viewBox="0 0 39 36" fill="none" xmlns="http://www.w3.org/2000/svg">
<path fill-rule="evenodd" clip-rule="evenodd" d="M19.4571 3.1064C28.4586 -1.50146 33.9632 1.14493 36.2705 5.68201C37.5035 8.10695 38.4965 12.4087 37.9072 16.8975H29.5658L28.4767 14.6285C28.0262 13.5566 26.5181 13.4442 25.9313 14.4788L25.0426 16.0442L23.2222 8.80382C22.9295 7.34598 20.8437 7.25941 20.45 8.71055L18.5005 15.883L17.8548 13.4939C17.5678 12.4159 16.177 12.0634 15.4194 12.9195L11.8896 16.8975H1.00651C0.417257 12.4087 1.41019 8.10695 2.64371 5.68201C4.95051 1.14493 10.4552 -1.50146 19.4571 3.1064ZM37.3098 19.7476C35.3809 26.3294 25.4381 34.0112 19.4571 35.0707C13.4761 34.0108 3.53333 26.3299 1.60438 19.7481H12.5233C12.992 19.7481 13.4077 19.5214 13.6674 19.1727L15.7934 16.7769L17.1187 21.7072C17.4947 23.1134 19.4901 23.099 19.868 21.712L21.7725 14.7098L23.1466 20.1762C23.4685 21.4647 25.2167 21.634 25.8007 20.4674L27.0629 18.2429L27.3953 18.935C27.6388 19.4444 28.1462 19.7419 28.6757 19.7424L37.3098 19.7476Z" fill="#FF3162"/>
</svg>
