<svg width="26" height="32" viewBox="0 0 26 32" fill="none" xmlns="http://www.w3.org/2000/svg">
<path d="M13.2452 3.35547C8.61906 3.35547 4.85947 7.11505 4.85947 11.7412V15.7803C4.85947 16.6328 4.49609 17.9326 4.06283 18.6593L2.45558 21.3288C1.46327 22.978 2.1481 24.8089 3.965 25.4238C9.98872 27.4364 16.4876 27.4364 22.5113 25.4238C24.2025 24.8648 24.9432 22.8662 24.0208 21.3288L22.4135 18.6593C21.9942 17.9326 21.6308 16.6328 21.6308 15.7803V11.7412C21.6308 7.12903 17.8573 3.35547 13.2452 3.35547Z" stroke="black" stroke-width="2.09642" stroke-miterlimit="10" stroke-linecap="round"/>
<path d="M15.8313 3.76099C14.1412 3.27964 12.3503 3.27964 10.6602 3.76099C11.0655 2.72676 12.0717 2 13.2457 2C14.4197 2 15.426 2.72676 15.8313 3.76099Z" stroke="black" stroke-width="2.09642" stroke-miterlimit="10" stroke-linecap="round" stroke-linejoin="round"/>
<path d="M17.4404 25.9272C17.4404 28.2333 15.5536 30.1201 13.2475 30.1201C12.1015 30.1201 11.0393 29.6449 10.2846 28.8902C9.49935 28.1038 9.05719 27.0386 9.05469 25.9272" stroke="black" stroke-width="2.09642" stroke-miterlimit="10"/>
</svg>
