<svg width="18" height="23" viewBox="0 0 18 23" fill="none" xmlns="http://www.w3.org/2000/svg">
<path d="M9.04597 2.96973C5.73597 2.96973 3.04597 5.65973 3.04597 8.96973V11.8597C3.04597 12.4697 2.78597 13.3997 2.47597 13.9197L1.32597 15.8297C0.615967 17.0097 1.10597 18.3197 2.40597 18.7597C6.71597 20.1997 11.366 20.1997 15.676 18.7597C16.886 18.3597 17.416 16.9297 16.756 15.8297L15.606 13.9197C15.306 13.3997 15.046 12.4697 15.046 11.8597V8.96973C15.046 5.66973 12.346 2.96973 9.04597 2.96973Z" fill="black" stroke="black" stroke-width="1.5" stroke-miterlimit="10" stroke-linecap="round"/>
<path d="M10.8953 3.26C9.68602 2.91559 8.4046 2.91559 7.19531 3.26C7.48531 2.52 8.20531 2 9.04531 2C9.88531 2 10.6053 2.52 10.8953 3.26Z" fill="white" stroke="black" stroke-width="1.5" stroke-miterlimit="10" stroke-linecap="round" stroke-linejoin="round"/>
<path d="M12.0469 19.1191C12.0469 20.7691 10.6969 22.1191 9.04688 22.1191C8.22688 22.1191 7.46687 21.7791 6.92687 21.2391C6.36503 20.6765 6.04867 19.9143 6.04688 19.1191" fill="white"/>
<path d="M12.0469 19.1191C12.0469 20.7691 10.6969 22.1191 9.04688 22.1191C8.22688 22.1191 7.46687 21.7791 6.92687 21.2391C6.36503 20.6765 6.04867 19.9143 6.04688 19.1191" stroke="black" stroke-width="1.5" stroke-miterlimit="10"/>
<circle cx="13" cy="3" r="3" fill="#FF3162"/>
</svg>
