<svg width="39" height="38" viewBox="0 0 39 38" fill="none" xmlns="http://www.w3.org/2000/svg">
<path d="M19.3407 37.9627C29.8239 37.9627 38.3221 29.4645 38.3221 18.9814C38.3221 8.49825 29.8239 0 19.3407 0C8.85762 0 0.359375 8.49825 0.359375 18.9814C0.359375 29.4645 8.85762 37.9627 19.3407 37.9627Z" fill="url(#paint0_linear_1277_1559)"/>
<path d="M15.174 28.3773C14.5571 28.3773 13.9639 28.14 13.4894 27.6892L7.84244 22.0422C6.9171 21.1169 6.9171 19.5984 7.84244 18.673C8.76779 17.7477 10.2863 17.7477 11.2117 18.673L15.1503 22.6117L27.4644 10.2975C28.3898 9.37218 29.9083 9.37218 30.8336 10.2975C31.759 11.2229 31.759 12.7414 30.8336 13.6667L16.8349 27.6655C16.3841 28.14 15.7909 28.3773 15.174 28.3773Z" fill="white"/>
<defs>
<linearGradient id="paint0_linear_1277_1559" x1="9.87806" y1="4.65209" x2="37.5593" y2="46.5694" gradientUnits="userSpaceOnUse">
<stop offset="0.2425" stop-color="#FF7900"/>
<stop offset="0.7878" stop-color="#FF3162"/>
</linearGradient>
</defs>
</svg>
