<svg width="34" height="20" viewBox="0 0 34 20" fill="none" xmlns="http://www.w3.org/2000/svg">
<path d="M33.5317 9.52077C22.7768 -1.89069 11.3961 -1.85533 0.695899 9.52103C0.398242 9.85101 0.398242 10.3528 0.695899 10.6827C11.4241 22.1155 22.8482 22.0368 33.5317 10.6825C33.8294 10.3525 33.8294 9.85073 33.5317 9.52077ZM17.1078 16.2761C15.4175 16.274 13.7971 15.6016 12.6017 14.4062C11.4067 13.2112 10.7342 11.5907 10.7321 9.90044C11.0832 1.4416 23.1371 1.44427 23.4834 9.90044H23.4831C23.4821 11.591 22.8099 13.212 21.6145 14.4076C20.4192 15.6029 18.7982 16.2748 17.1077 16.2762L17.1078 16.2761Z" fill="#3E68FF"/>
<path d="M17.1046 5.27893C15.8788 5.28076 14.7036 5.76842 13.8369 6.63533C12.97 7.50224 12.4823 8.67728 12.4805 9.9031C12.7435 16.0382 21.4705 16.0361 21.7287 9.9031H21.7284C21.7276 8.67701 21.2402 7.50124 20.3733 6.63433C19.5061 5.76716 18.3306 5.27973 17.1045 5.279L17.1046 5.27893ZM19.6853 10.7789H19.6851C19.2029 10.7755 18.813 10.3853 18.8093 9.9031C18.8103 9.48346 18.6565 9.07844 18.3777 8.76482C18.0988 8.45153 17.714 8.25187 17.2973 8.20417C16.8214 8.14579 16.4807 7.71546 16.5336 7.23898C16.5863 6.76226 17.0127 6.41692 17.4899 6.4641C18.336 6.55741 19.1177 6.96011 19.6846 7.59503C20.2515 8.22996 20.5638 9.05206 20.5609 9.90308C20.5596 10.3861 20.1684 10.7775 19.6851 10.7789L19.6853 10.7789Z" fill="#3E68FF"/>
</svg>
